<svg width="532" height="374" viewBox="0 0 532 374" fill="none" xmlns="http://www.w3.org/2000/svg">
<path fill-rule="evenodd" clip-rule="evenodd" d="M395.746 1.09093C395.271 1.56649 385.601 2.20058 374.504 2.67614C351.836 3.46875 350.092 3.62739 347.397 5.37112C346.129 6.16373 345.336 6.00513 345.336 4.89548C345.336 3.94435 343.592 3.62731 341.056 4.10287C328.691 6.32218 282.879 8.06587 229.298 8.2244C198.545 8.38292 183.961 9.01716 184.754 9.96829C185.388 11.0779 183.803 11.3949 180.315 10.9194C177.462 10.4438 172.706 11.0779 169.853 12.3461C166.841 13.4558 162.719 13.9313 160.5 13.4557C158.281 12.8216 154.952 13.1387 153.05 13.9313C148.928 15.8336 121.979 22.0158 113.102 23.1255C109.615 23.4425 102.481 24.5522 97.2499 25.3448C89.0068 26.7715 63.3263 28.6738 50.0105 28.9909C47.6327 28.9909 45.7304 29.7835 45.7304 30.5761C45.7304 31.3687 44.3037 31.5271 42.4015 31.0515C40.6577 30.4175 37.1703 30.7345 34.951 31.6857C32.5731 32.6368 28.9271 33.7464 26.7078 34.0635C24.4885 34.3805 22.9033 35.4902 23.2204 36.4413C23.3789 37.3924 22.1107 38.185 20.367 38.185C18.6232 38.185 17.1965 39.2947 17.1965 40.5628C17.1965 41.9895 16.2454 42.4652 14.5017 41.8311C12.5994 41.0385 12.2824 41.3554 13.2335 42.9407C14.1846 44.5259 13.7091 44.843 11.1727 44.2089C9.27046 43.5748 7.68524 43.8918 7.68524 44.6844C7.68524 45.477 6.73412 45.9527 5.78299 45.7941C4.51482 45.4771 3.72221 46.7453 3.88073 48.8061C3.88073 50.7083 3.24664 51.8179 2.45403 51.3424C1.5029 50.8668 1.18586 54.1957 1.66143 60.2196C1.97847 65.6093 1.66143 69.8893 0.868817 69.8893C0.0762092 69.8893 0.234732 70.8405 1.18586 71.9502C2.13699 73.2184 2.61255 74.4864 2.13699 74.8035C1.02734 76.0716 4.67334 87.9608 7.05116 90.4971C8.63638 92.3994 8.95342 98.1062 8.47785 115.861C7.20968 160.722 7.20968 175.623 8.16081 177.209C8.7949 178.16 8.7949 182.123 8.31933 185.927C6.73412 197.658 6.41708 207.803 7.84377 206.852C8.63638 206.376 9.27046 206.852 9.27046 207.645C9.27046 208.596 8.63638 209.388 8.00229 209.388C6.10003 209.388 5.94151 216.997 7.68524 218.107C8.63637 218.741 8.7949 220.009 8.16081 220.96C7.52673 221.912 6.89264 230.472 6.5756 239.825C6.41708 249.336 5.78299 257.737 5.30742 258.372C4.83186 259.164 5.46594 260.115 6.41707 260.591C8.00229 261.066 8.00229 261.701 6.41707 263.603C4.99038 265.505 4.83186 266.456 6.10003 267.249C7.3682 268.041 7.68525 271.846 7.20968 278.504C6.73412 284.052 7.05116 288.966 7.84377 289.6C8.63638 290.076 8.95342 291.185 8.31933 291.978C7.84377 292.771 8.16081 294.514 9.27046 295.783C10.2216 296.892 10.3801 298.319 9.58751 298.795C8.95342 299.112 9.11194 305.453 10.2216 312.744C12.9165 331.926 14.1846 336.206 16.721 336.206C17.9891 336.206 18.7818 336.998 18.4647 338.108C17.6721 340.169 27.0249 350.156 33.5243 354.436C36.0606 356.021 37.8043 356.496 37.8043 355.387C37.8043 354.436 38.597 353.643 39.5481 353.643C40.3407 353.643 40.8163 354.277 40.3407 355.07C39.8651 355.862 40.4992 357.289 41.7674 358.399C43.8282 360.143 43.9867 359.984 43.3526 358.081C42.877 356.813 43.5111 354.753 44.9378 353.643C46.9986 351.899 47.1571 352.058 46.3645 354.277C45.0963 357.606 48.4253 361.569 52.7054 361.569C55.0832 361.569 55.4002 361.093 53.815 360.142C52.3883 359.191 52.2298 358.399 53.498 357.764C54.4491 357.13 55.2417 357.448 55.2417 358.399C55.2417 359.508 56.3514 359.825 57.7781 359.35C59.9974 358.557 60.1559 358.716 58.5707 360.618C57.144 362.362 57.6196 363.154 61.107 364.264C67.4479 366.166 74.2643 365.057 73.1547 362.203C72.6791 360.935 73.3132 359.984 74.7399 359.984C76.0081 359.984 77.5933 361.093 78.0688 362.52C78.5444 363.788 78.3859 364.423 77.4347 363.947C76.4836 363.471 75.8495 364.106 75.8495 365.532C75.8495 367.435 76.6421 367.91 78.3859 367.276C79.8126 366.642 82.0319 367.117 83.4586 368.227C85.5193 369.971 85.6779 369.654 84.7267 365.532C83.1415 358.874 82.0319 358.081 73.6302 358.081C69.6672 358.081 66.3382 357.606 66.3382 356.814C66.3382 356.179 64.9115 355.862 63.1678 356.338C61.4241 356.813 59.9974 356.496 59.9974 355.545C59.9974 354.594 63.1678 353.96 67.1308 353.96C71.0939 354.119 74.2643 354.753 74.2643 355.545C74.2643 356.338 74.8984 356.655 75.691 356.179C76.4836 355.545 79.1785 356.021 81.5563 356.814C84.7267 358.082 86.1534 358.082 87.1046 356.655C88.0557 355.07 88.8483 355.07 90.7506 356.655C92.6528 358.24 94.3966 358.24 97.884 357.131C101.689 355.862 102.798 356.021 103.432 357.923C104.542 360.777 103.274 363.154 100.42 363.154C99.3107 363.154 97.884 364.105 97.4085 365.057C96.9329 366.166 96.9329 365.532 97.4085 363.63C98.0425 360.459 97.567 360.142 92.0187 360.301C87.1046 360.301 85.8364 360.935 86.1534 362.996C86.4705 364.422 86.7875 366.166 86.7875 367.117C86.946 367.91 90.4335 368.702 94.8721 368.861C99.1522 369.02 102.481 368.386 102.323 367.434C102.164 366.642 103.749 365.691 105.969 365.374C108.399 365.057 108.822 365.585 107.237 366.959C103.432 369.812 103.591 371.556 107.395 369.495C109.139 368.703 111.834 368.385 113.419 368.861C115.48 369.495 115.638 369.337 114.212 368.227C112.468 367.117 112.785 366.642 115.48 365.849C117.699 365.374 119.919 366.166 122.138 368.385C124.833 371.239 125.308 371.239 124.516 369.178C123.882 367.593 124.199 366.325 124.991 366.325C125.942 366.325 126.576 367.276 126.735 368.227C126.735 369.337 127.369 368.861 128.003 367.117C128.849 365.11 129.905 365.268 131.174 367.593C133.393 371.714 139.417 372.19 142.429 368.703C143.538 367.435 145.599 366.483 147.026 366.483C149.087 366.642 149.087 366.8 146.867 367.434C145.282 367.751 144.014 368.861 144.014 369.654C144.014 372.19 147.026 371.08 149.721 367.434L152.257 363.947L151.464 367.434C150.83 370.446 151.147 370.763 153.525 369.495C154.952 368.703 156.854 368.544 157.488 369.178C158.281 369.812 158.281 369.337 157.647 368.227C156.854 366.959 157.647 366.325 159.707 366.325C161.61 366.325 163.036 367.117 163.036 368.068C163.036 369.337 163.829 369.178 165.573 367.751C168.268 365.532 176.035 364.74 177.303 366.642C177.779 367.276 180.157 366.8 182.535 365.532C186.181 363.63 186.973 363.63 188.083 365.849C189.192 367.593 191.412 368.068 196.96 367.751C200.923 367.434 204.252 367.593 204.252 368.227C204.252 369.971 206.154 369.812 209.008 367.91C211.068 366.483 210.751 365.691 207.105 362.52C203.618 359.508 203.301 358.557 205.203 357.764C206.63 357.289 207.105 357.606 206.63 358.399C206.154 359.35 206.313 359.984 207.264 359.984C208.057 359.984 209.325 359.191 209.8 358.399C210.276 357.448 212.495 356.814 214.714 356.814C216.775 356.814 218.519 356.338 218.519 355.545C218.519 354.911 220.263 354.436 222.482 354.436C225.335 354.436 226.445 355.228 226.445 357.448C226.445 359.984 225.969 360.142 224.543 358.716C222.165 356.338 219.47 356.179 220.897 358.399C221.372 359.191 220.738 359.984 219.312 359.984C217.885 359.984 217.092 360.618 217.726 361.411C218.202 362.203 217.885 363.471 216.934 363.947C215.983 364.581 215.349 364.422 215.507 363.63C216.141 360.142 215.031 358.716 212.178 359.508C210.434 359.984 209.008 361.094 209.008 361.886C209.008 362.679 209.642 362.996 210.434 362.52C211.227 362.045 212.654 362.679 213.763 363.947C215.507 366.166 216.141 366.166 218.36 364.105C219.946 362.679 221.848 362.203 222.958 362.996C224.226 363.63 227.555 363.947 230.725 363.63C234.847 363.154 235.956 363.471 235.005 365.057C234.054 366.642 234.371 366.642 236.432 365.057C237.859 363.788 239.761 363.471 240.871 364.105C241.98 364.739 246.102 365.374 250.382 365.532C256.089 365.849 257.674 365.374 257.04 363.788C256.564 362.52 257.198 361.569 258.783 361.569C260.369 361.569 261.003 362.52 260.369 364.264C259.576 366.8 259.735 366.959 261.637 364.581C262.905 362.996 264.966 362.362 266.868 362.996C269.721 363.947 272.258 364.105 283.196 363.313C285.098 363.313 286.683 362.045 286.683 360.777C286.683 358.399 288.427 357.765 292.707 358.24C293.975 358.399 295.719 357.923 296.829 356.972C298.572 355.387 303.011 356.972 302.694 359.033C302.535 359.508 302.852 359.984 303.328 359.984H307.925C310.779 359.984 311.73 359.191 311.73 356.179C311.73 353.96 310.62 351.899 309.352 351.265C307.767 350.79 307.291 351.107 307.767 352.692C308.718 355.228 301.743 355.704 297.304 353.326C295.243 352.216 293.341 352.533 290.488 354.436C287.634 356.179 286.683 356.338 286.683 354.911C286.683 353.484 286.208 353.643 284.94 355.228C283.671 357.131 283.513 356.813 284.305 354.118C284.781 352.216 284.464 350.314 283.513 349.68C282.72 349.205 281.928 349.997 281.928 351.899C281.928 353.643 280.501 355.387 278.757 356.021C277.013 356.497 275.587 358.082 275.587 359.35C275.587 360.618 274.477 361.569 273.209 361.569C271.941 361.569 270.831 360.46 270.831 359.191C270.831 357.765 269.88 357.289 268.136 357.923C266.392 358.557 265.917 358.399 266.71 357.131C267.344 356.021 267.185 355.228 266.234 355.228C265.441 355.228 264.332 356.179 264.015 357.131C263.381 358.716 263.064 358.716 263.064 357.131C262.905 356.021 262.271 355.545 261.32 356.021C260.527 356.497 259.735 356.338 259.735 355.387C259.735 352.85 262.588 351.899 263.381 353.96C264.173 355.862 265.124 351.265 264.649 348.412C264.49 347.619 265.124 347.461 265.917 348.095C266.868 348.57 267.027 350.156 266.551 351.582C265.917 353.326 266.234 353.801 267.819 353.326C269.087 352.85 269.88 351.424 269.88 349.997C269.721 348.57 270.356 347.778 271.148 348.253C271.941 348.887 272.416 350.948 271.941 353.009C271.624 354.911 271.782 357.448 272.416 358.399C273.05 359.508 274.002 358.082 274.636 355.07C275.904 348.095 278.44 345.4 281.769 347.144C283.196 347.936 285.098 348.887 285.891 349.204C286.842 349.363 287.317 350.156 287.159 350.79C286.842 351.424 287.793 351.582 289.061 351.107C290.329 350.473 291.439 349.046 291.439 347.619C291.439 345.558 292.073 345.875 293.975 348.57C295.243 350.473 296.987 351.741 297.78 351.265C298.414 350.79 299.365 351.107 299.682 352.058C299.999 353.009 301.901 352.533 304.121 350.948C306.34 349.363 309.51 348.253 311.254 348.412C312.945 348.518 313.104 348.359 311.73 347.936C308.876 347.144 307.608 344.132 310.144 344.132C312.522 344.132 314.742 346.668 315.851 349.997C316.961 353.485 321.558 355.228 321.558 352.058C321.558 351.107 322.985 351.106 325.204 351.741C327.106 352.533 331.069 352.85 333.923 352.533C336.776 352.375 338.837 352.692 338.361 353.484C337.886 354.277 338.52 355.228 339.788 355.862C341.056 356.338 342.483 356.021 342.958 355.228C343.593 354.277 343.275 353.643 342.324 353.643C340.898 353.643 338.837 349.363 338.044 344.449C337.727 342.705 338.044 342.705 340.264 344.449C341.69 345.558 342.324 345.717 341.69 344.766C340.898 343.339 343.275 342.863 349.299 342.705C354.055 342.705 359.286 341.912 360.871 341.12C362.615 340.169 364.676 340.169 366.42 341.12C370.7 343.498 369.749 345.875 365.151 344.132C361.347 342.705 358.018 344.607 361.188 346.509C361.981 346.985 362.774 346.985 362.774 346.193C362.774 345.558 363.408 345.875 364.2 347.144C366.103 350.156 371.017 348.095 370.541 344.607C370.066 339.059 370.7 337.791 374.346 337.949C377.675 337.949 377.675 338.108 374.663 339.534C372.443 340.486 374.187 340.644 379.894 340.01C385.284 339.376 388.137 339.693 388.137 340.803C388.137 341.754 389.247 342.546 390.673 342.546C392.893 342.546 392.893 342.071 391.308 340.169C389.564 338.108 390.039 337.791 393.844 337.791C397.014 337.791 397.807 337.315 396.38 336.364C394.795 335.413 395.112 334.779 397.965 334.145C399.868 333.511 401.928 333.828 402.087 334.62C402.404 335.571 403.672 336.206 404.94 336.206C406.526 336.206 406.843 335.413 406.209 334.145C405.416 333.035 406.209 333.194 407.952 334.62C410.013 336.206 410.964 336.364 411.44 335.254C411.757 334.145 413.659 333.828 415.561 334.303C418.732 335.096 418.89 334.937 416.671 332.084C414.61 329.389 414.61 329.231 416.671 330.974C419.366 333.035 425.707 332.877 429.194 330.816C430.462 330.023 431.731 330.34 432.523 331.608C433.474 333.035 434.425 333.194 436.011 331.926C437.12 330.974 441.083 330.34 444.729 330.499C448.375 330.657 451.229 330.182 451.07 329.389C450.912 328.597 452.814 327.804 455.35 327.645C457.728 327.487 460.898 325.902 462.167 324.316C464.069 321.939 464.386 321.78 463.752 323.841C463.276 325.268 463.593 326.853 464.703 327.328C465.813 327.645 465.179 328.121 463.593 328.121C461.585 328.227 461.533 328.967 463.435 330.34C466.13 332.401 465.813 332.718 460.898 333.828C454.558 335.254 455.033 335.254 449.961 333.828C446.949 333.035 446.632 333.194 448.375 334.462C450.436 335.889 450.278 336.206 447.9 336.206C446.314 336.206 445.522 336.998 445.997 337.791C446.632 338.9 447.741 338.901 448.851 338.108C451.387 336.206 456.46 336.998 458.045 339.693C459.155 341.278 459.472 340.961 459.472 338.742C459.472 335.888 459.63 335.889 462.325 338.266C463.91 339.852 465.971 340.961 466.764 340.961C467.556 340.961 466.922 340.169 465.496 339.218C463.91 338.425 462.642 336.998 462.642 336.047C462.642 333.828 477.226 335.73 478.653 338.108C479.763 339.693 480.397 339.693 481.982 338.108C483.409 336.681 483.409 335.73 481.982 334.303C480.714 333.035 480.714 331.767 481.982 329.231C483.567 326.219 483.567 326.06 481.031 328.121C479.604 329.389 478.019 329.865 477.385 329.231C476.909 328.755 477.226 328.279 478.336 328.279C479.604 328.279 480.08 327.011 479.604 325.268C479.128 323.048 479.445 322.414 481.031 323.048C484.043 324.158 486.103 328.28 485.628 332.56C485.469 334.462 486.262 336.364 487.53 336.84C488.64 337.315 489.591 336.998 489.591 336.206C489.591 333.035 489.908 332.242 491.652 330.023C493.237 328.121 493.078 327.804 490.859 328.755C489.274 329.231 487.689 329.072 487.213 328.279C486.579 327.328 487.372 326.694 488.64 326.694C489.908 326.694 494.029 323.841 497.675 320.353C501.321 316.866 504.967 314.013 505.602 314.013C510.833 314.013 517.966 307.038 517.015 302.758C516.54 301.172 522.088 301.806 523.197 303.55C523.99 304.66 524.466 304.184 524.466 302.441C524.466 300.538 525.1 299.904 526.526 300.697C527.478 301.331 527.319 300.538 525.892 298.795C523.515 295.783 523.515 290.234 526.051 290.234C526.685 290.234 527.795 289.125 528.27 287.698C528.746 286.271 528.587 285.796 527.478 286.43C526.368 287.064 526.051 285.637 526.685 282.15C527.161 279.138 526.685 275.809 525.575 274.541C524.149 272.797 524.149 272.48 525.575 273.273C526.685 273.907 527.795 273.114 528.429 271.212C529.063 269.309 530.172 268.517 531.282 268.992C532.392 269.626 531.599 268.358 529.855 266.298C526.051 261.859 524.149 255.835 526.209 254.408C527.002 253.933 527.636 252.665 527.636 251.714C527.636 250.446 527.16 250.445 526.209 251.872C525.1 253.616 524.783 253.616 523.99 251.555C523.356 249.97 523.832 249.019 525.1 249.019C526.209 249.019 527.953 248.068 528.904 246.958C530.331 245.373 529.697 244.897 526.051 245.214C523.356 245.373 521.295 244.897 521.295 244.105C521.295 243.312 522.722 242.678 524.624 242.678C526.843 242.678 527.636 241.885 527.16 240.459C526.685 239.349 527.16 237.447 528.112 236.337C529.538 234.752 529.538 234.435 527.478 235.227C524.783 236.179 524.466 231.74 526.843 223.18C527.795 219.692 527.478 218.9 525.258 218.9C523.673 218.9 522.88 217.949 523.197 216.046C523.514 214.62 524.624 213.51 525.417 213.669C526.209 213.827 527.002 212.559 527.002 210.974C527.002 209.388 526.209 208.437 525.417 208.913C524.624 209.547 524.307 208.754 524.941 207.328C525.417 205.742 525.258 204.633 524.466 204.633C522.246 204.633 522.563 197.182 524.624 195.756C525.892 194.963 525.575 194.17 523.832 193.219C521.295 191.793 520.186 188.622 522.563 188.939C525.575 189.415 526.685 188.622 524.624 187.354C521.771 185.61 520.503 175.465 523.356 176.891C524.307 177.525 523.832 176.733 522.246 175.465C520.133 173.774 520.133 172.876 522.246 172.77C524.941 172.77 524.783 172.611 521.771 171.343C519.71 170.551 518.125 169.441 518.125 168.965C518.125 168.331 518.759 168.331 519.551 168.965C520.344 169.441 521.454 169.124 522.088 168.173C522.563 167.38 522.246 166.587 521.295 166.587C520.344 166.587 519.869 165.953 520.503 165.161C520.978 164.368 520.82 163.259 520.186 162.942C518.125 161.673 519.076 152.162 521.454 150.577C523.356 149.467 523.356 149.15 521.454 149.15C519.71 149.15 519.71 148.516 521.771 146.297C523.356 144.712 524.466 142.651 524.466 141.858C524.466 141.066 523.832 141.383 523.197 142.492C522.405 143.602 520.661 144.077 519.234 143.443C517.332 142.809 517.015 141.7 518.125 138.846C518.917 136.627 518.917 134.725 517.649 133.456C516.381 132.188 516.857 131.713 519.551 131.713C522.722 131.713 522.88 131.396 521.295 129.335C520.186 128.067 519.868 126.957 520.661 126.957C521.295 126.957 520.503 125.847 518.759 124.421C517.174 123.153 516.54 122.36 517.649 122.836C520.344 124.262 521.929 120.616 519.71 118.556C518.125 117.129 517.966 117.129 518.759 118.556C519.393 119.665 519.076 120.616 518.283 120.616C515.43 120.616 516.381 116.178 519.393 115.385C521.612 114.751 521.612 114.592 518.917 114.434C516.381 114.275 516.223 113.958 517.966 112.849C519.869 111.58 519.868 110.946 517.649 108.727C516.064 107.3 514.954 104.606 515.113 102.703V99.2158L516.54 102.703C517.332 104.764 518.442 106.349 518.917 106.349C519.551 106.349 519.393 104.764 518.759 102.703C518.125 100.801 517.649 97.9477 517.808 96.521C517.808 94.9358 517.332 93.3505 516.381 92.875C515.588 92.2409 515.588 90.6557 516.54 88.7534C517.808 86.6927 517.649 85.7415 516.54 85.7415C515.588 85.7415 515.113 85.1074 515.747 84.3148C516.223 83.5221 515.905 82.4125 514.954 81.7785C514.003 81.1444 513.686 80.0348 514.162 79.2421C516.381 75.9132 516.223 71.3161 514.003 70.365C511.942 69.5724 511.942 69.2552 514.162 67.67C515.588 66.5603 516.064 64.6582 515.588 62.2804C514.796 59.427 514.162 59.1098 512.418 60.5365C510.991 61.6462 510.199 61.8048 510.199 60.6952C510.199 59.7441 509.723 57.8417 509.089 56.2565C508.296 54.1957 508.613 53.7202 510.674 54.5128C512.894 55.3054 513.211 54.8299 512.418 51.1839C511.784 48.8061 510.357 45.7941 509.089 44.3674C507.821 42.9407 507.028 40.8799 507.345 39.7702C507.662 38.5021 506.394 36.9168 504.65 35.9657C501.321 34.0634 500.053 31.2102 500.37 26.6131C501.163 18.687 501.48 17.5772 503.065 18.2113C504.175 18.5284 504.016 16.9431 502.59 13.6142C500.687 9.65113 498.785 8.06591 494.822 7.27331C491.969 6.79774 489.591 5.84657 489.591 5.05397C489.591 3.15171 479.445 3.94447 477.226 6.00525C474.373 8.70012 473.263 8.54144 459.313 5.05397C452.655 3.31023 442.986 2.20065 436.803 2.35918C430.938 2.35918 426.182 2.20062 426.182 1.72505C426.182 1.24949 423.17 0.615477 419.524 0.615477C414.769 0.298434 413.501 0.773921 415.086 1.72505C416.829 2.8347 416.354 3.31027 413.025 3.31027C410.489 3.31027 408.903 2.67618 409.537 1.72505C410.806 -0.494251 406.684 -0.335769 404.465 1.88353C403.197 3.15171 401.77 3.15171 399.551 1.88353C397.965 0.932404 396.063 0.615361 395.746 1.09093ZM374.663 38.185C372.443 40.5628 371.175 40.8799 368.639 39.6117C366.42 38.3436 365.151 38.3435 364.359 39.7702C363.566 41.0384 362.774 41.0385 362.14 40.0874C360.713 37.7096 365.785 36.4413 369.273 38.185C372.126 39.7702 372.919 39.1363 372.443 36.1244C372.443 35.4903 373.395 35.0146 374.98 35.0146C377.358 35.0146 377.199 35.3316 374.663 38.185ZM386.552 37.5509C386.552 37.8679 385.442 38.185 384.174 38.185C382.906 38.185 381.796 37.5509 381.796 36.5998C381.796 35.8072 382.906 35.4901 384.174 35.9657C385.442 36.5998 386.552 37.2338 386.552 37.5509ZM393.685 36.5998C394.161 37.3924 393.527 38.185 392.1 38.185C390.673 38.185 390.039 37.3924 390.515 36.5998C390.99 35.6487 391.783 35.0146 392.1 35.0146C392.417 35.0146 393.21 35.6487 393.685 36.5998ZM409.537 39.6117C409.062 40.0873 407.952 39.4532 407.16 38.185C406.05 36.4413 405.574 36.2828 405.574 37.868C405.574 38.9777 404.782 39.4532 403.831 38.8191C402.563 38.1851 402.721 37.3924 404.148 36.4413C406.367 35.1731 411.123 37.868 409.537 39.6117ZM350.092 38.8191C350.092 39.2947 349.458 40.0873 348.507 40.5628C347.714 41.0384 346.921 40.7213 346.921 39.9287C346.921 38.9776 347.714 38.185 348.507 38.185C349.458 38.185 350.092 38.5021 350.092 38.8191ZM259.735 41.5139C259.735 42.3065 260.369 42.7821 261.161 42.3065C261.954 41.6725 262.271 42.7821 261.795 44.5259C261.003 47.6963 260.686 47.6963 257.991 45.16C254.345 41.8311 254.186 39.7702 257.357 39.7702C258.625 39.7702 259.735 40.5628 259.735 41.5139ZM335.983 40.88C334.24 41.6726 334.24 41.9895 335.983 43.0991C337.569 44.0503 337.093 44.3675 334.557 44.0504C329.326 43.7334 330.435 39.6117 335.666 39.9287C337.569 39.9287 337.727 40.2459 335.983 40.88ZM291.439 42.9407C291.439 43.7333 290.646 44.5259 289.695 44.5259C288.903 44.5259 288.585 43.7333 289.061 42.9407C289.537 41.9895 290.329 41.3554 290.805 41.3554C291.122 41.3554 291.439 41.9895 291.439 42.9407ZM318.388 41.9896C318.388 42.3066 317.278 43.0992 315.851 43.5748C314.583 44.0504 313.949 43.8918 314.425 42.9407C315.376 41.3554 318.388 40.7214 318.388 41.9896ZM183.644 44.5259C183.644 45.3185 182.535 46.1111 181.108 46.1111C179.84 46.1111 179.206 45.3185 179.681 44.5259C180.157 43.5747 181.266 42.9407 182.218 42.9407C183.01 42.9407 183.644 43.5747 183.644 44.5259ZM193.156 43.5748C193.156 44.0504 192.521 44.8429 191.57 45.3185C190.778 45.7941 189.985 45.477 189.985 44.6844C189.985 43.7332 190.778 42.9407 191.57 42.9407C192.521 42.9407 193.156 43.2577 193.156 43.5748ZM216.617 46.2696C217.726 48.0133 217.568 48.8061 215.983 48.8061C214.873 48.8061 214.239 48.0135 214.873 47.2209C215.349 46.4283 214.397 46.2697 212.654 46.7452C209.325 47.8549 204.252 46.5866 204.252 44.6844C204.252 42.3065 215.031 43.7332 216.617 46.2696ZM228.823 44.5259C228.347 45.3185 228.664 46.1111 229.774 46.1111C230.884 46.1111 231.359 46.5866 230.725 47.0622C229.298 48.4889 226.287 46.1111 227.238 44.3674C227.872 43.5748 228.506 42.9407 228.981 42.9407C229.457 42.9407 229.298 43.5747 228.823 44.5259ZM235.481 43.8918C235.005 44.3673 233.579 44.526 232.469 44.0504C231.201 43.5749 231.676 43.0991 233.42 43.0991C235.164 42.9406 236.115 43.4162 235.481 43.8918ZM247.053 43.5748C247.053 45.3185 244.041 45.9526 243.09 44.5259C242.614 43.7333 243.248 42.9407 244.517 42.9407C245.943 42.9407 247.053 43.2577 247.053 43.5748ZM269.88 43.8918C272.892 45.0014 273.367 49.4402 270.514 48.8061C268.295 48.489 266.075 46.1112 266.075 44.0504C266.075 42.6237 266.71 42.6236 269.88 43.8918ZM356.908 45.16C357.384 46.4282 356.591 47.6964 354.848 48.172C352.311 48.806 352.153 48.489 353.738 45.9526C355.957 42.3066 355.799 42.3066 356.908 45.16ZM386.552 45.477C384.333 46.5866 382.906 47.6963 383.381 47.6963C389.088 49.123 392.893 49.123 392.893 47.6963C392.893 46.5867 394.002 46.5866 396.539 47.8548C399.709 49.5985 399.868 49.5987 397.807 47.2209C396.38 45.3186 396.222 44.5259 397.49 44.5259C398.441 44.5259 399.709 45.6355 400.185 46.9037C400.819 48.1719 401.77 49.2815 402.721 49.2815C403.514 49.2815 405.416 50.5498 406.843 51.9765C408.534 53.6674 408.534 54.1958 406.843 53.5617C404.94 52.9276 403.355 53.8787 401.453 57.2076C399.868 59.744 396.063 63.073 393.051 64.6582C384.808 68.7798 380.211 72.4257 381.479 73.8524C382.113 74.3279 381.796 74.6451 380.845 74.328C378.309 73.6939 367.529 82.4125 364.042 88.1193C362.457 90.6557 361.188 91.9238 361.188 90.6556C361.188 89.3874 358.494 91.2897 355.323 94.6187C351.994 97.9476 349.616 101.277 349.775 101.911C349.933 102.703 349.299 103.179 348.348 103.179C346.287 103.179 342.007 107.301 343.117 108.252C343.434 108.727 342.641 109.995 341.056 111.263C338.678 113.166 338.52 113.166 339.629 111.105C340.422 109.837 338.837 110.788 336.142 113.483C333.606 116.019 330.277 119.19 328.85 120.299C327.423 121.409 326.789 123.153 327.265 124.104C327.899 125.055 327.74 125.372 326.631 124.738C325.68 124.262 324.411 125.213 323.936 127.116C323.302 128.859 322.509 129.969 322.034 129.493C321.558 129.018 320.29 129.494 319.18 130.603C318.071 131.713 315.693 133.774 313.79 135.359C311.888 136.944 310.779 139.005 311.413 139.956C312.047 141.066 311.888 141.224 310.779 140.59C309.669 139.956 308.876 140.59 308.718 142.334C308.718 143.919 308.242 144.395 307.925 143.285C306.815 140.749 296.353 150.894 297.304 153.43C297.78 154.54 296.987 155.491 295.56 155.491C294.134 155.491 293.024 156.601 293.024 158.027C293.024 159.613 292.073 160.247 290.805 159.771C289.22 159.137 288.585 159.771 289.061 161.832C289.537 163.893 288.268 165.161 284.94 166.429C282.403 167.222 280.342 168.807 280.342 169.599C280.342 170.551 279.233 171.343 277.806 171.343C276.538 171.343 275.745 171.977 276.221 172.77C276.855 173.562 274.16 176.416 270.514 179.111C266.868 181.806 264.49 184.025 265.441 184.183C266.234 184.183 265.283 184.817 263.222 185.769C261.161 186.561 260.052 187.829 260.527 188.781C261.637 190.524 257.674 195.121 255.137 195.121C254.186 195.121 253.552 195.597 253.869 196.231C254.028 197.024 253.552 197.816 252.76 198.292C247.845 200.828 243.09 207.169 244.199 209.547C245.626 212.717 244.358 214.144 240.395 214.144C237.859 214.144 236.907 215.729 237.225 219.058C237.383 219.534 234.847 220.802 231.835 221.912C228.823 223.021 226.762 224.606 227.396 225.399C227.872 226.35 225.969 226.826 222.641 226.509C219.629 226.35 217.409 225.716 217.885 225.082C218.202 224.448 215.031 222.704 210.751 221.277C205.679 219.692 202.508 217.473 201.874 215.571C201.24 213.827 199.972 212.717 198.862 212.876C197.753 213.193 194.582 210.974 191.729 208.12C188.875 205.425 185.705 203.523 184.754 204.157C183.644 204.633 183.327 204.633 183.961 203.999C185.071 202.572 170.17 187.195 167.634 187.195C166.841 187.195 166.524 186.403 166.999 185.61C167.475 184.659 167.158 184.025 166.365 184.025C164.305 184.025 148.769 168.173 148.769 165.953C148.769 165.161 148.294 164.844 147.818 165.319C146.55 166.588 135.929 155.333 137.039 153.747C137.514 152.955 137.197 152.321 136.246 152.321C134.344 152.321 128.162 145.98 128.162 144.078C128.162 143.285 128.954 143.126 130.064 143.76C131.174 144.553 131.332 144.236 130.698 142.968C129.905 141.858 128.479 141.383 127.211 141.858C125.942 142.334 124.991 142.017 124.991 141.224C124.991 140.273 124.199 139.639 123.247 139.639C120.711 139.639 117.541 135.834 118.333 133.615C118.65 132.505 117.699 131.079 115.956 130.762C112.468 129.811 106.603 121.409 107.237 118.238C107.554 116.812 106.761 116.178 105.335 116.812C104.066 117.287 101.53 115.861 99.4692 113.483C97.4085 111.263 94.0795 107.935 92.1773 106.032C90.1165 104.13 88.5313 101.911 88.5313 100.96C88.5313 100.008 85.6779 97.155 82.1904 94.6187C78.7029 91.9238 75.8495 89.2291 75.8495 88.4365C75.8495 87.6439 73.3132 84.6318 70.3013 81.7785C64.1189 75.5961 64.9115 74.328 75.691 73.6939C79.654 73.3768 86.946 72.4257 91.7017 71.4745C96.4573 70.5234 101.689 69.5722 103.432 69.2552C105.018 69.0967 107.395 67.5115 108.505 65.9263C109.773 64.1826 110.724 63.8656 110.724 64.9752C110.724 67.353 126.101 66.2433 128.637 63.707C129.43 62.9143 131.015 62.5973 132.125 62.9143C133.234 63.3899 134.661 63.0729 135.295 62.1217C135.771 61.1706 135.454 60.378 134.661 60.378C133.71 60.378 132.917 59.5855 132.917 58.4759C132.917 57.5247 134.185 57.8417 135.929 59.4269C137.99 61.3292 139.258 61.6462 140.051 60.378C140.685 59.2684 141.795 59.1099 142.904 60.0611C145.441 62.1219 151.94 59.5854 151.94 56.5735C151.94 55.3053 152.733 53.7202 153.842 53.0861C154.952 52.2935 155.269 52.7691 154.635 54.5128C154.159 55.9395 154.635 57.3662 155.903 57.8417C158.915 58.9514 160.817 55.6224 158.281 54.0372C157.171 53.2446 159.073 52.6106 163.036 52.135C168.585 51.6594 170.011 52.135 170.645 54.3543C170.962 55.9395 171.914 56.7321 172.706 56.2565C173.499 55.7809 173.816 54.6713 173.34 53.8787C172.706 53.0861 173.182 52.452 173.974 52.452C174.926 52.452 175.718 53.5616 175.718 54.8298C175.718 58.0002 184.912 58.0003 188.558 54.6713C190.619 52.769 191.57 52.769 192.521 54.1957C193.314 55.4638 192.997 55.7809 191.57 54.8298C190.144 54.0372 189.827 54.1957 190.619 55.4639C191.887 57.5247 198.07 56.2566 199.655 53.7202C200.13 52.9276 201.082 53.2446 201.557 54.5128C202.033 55.781 204.093 56.732 206.154 56.5735C208.849 56.415 209.642 55.4639 209.325 53.2446C209.113 51.2366 209.747 51.1838 211.227 53.0861C212.971 55.1469 215.031 55.781 218.519 55.3054C221.214 54.8299 223.75 55.1469 224.226 55.9395C225.335 57.8418 231.201 57.5246 231.201 55.6224C231.201 54.5127 232.152 54.3543 233.737 55.3054C235.164 56.098 239.127 56.2565 242.456 55.6224C245.943 54.9883 248.955 54.9883 249.431 55.6224C250.857 57.8417 262.588 57.2076 263.539 54.8298C264.015 53.5616 263.539 52.452 262.588 52.452C261.637 52.452 261.32 51.9765 261.795 51.3424C262.429 50.8668 264.173 51.5009 265.6 52.7691C268.929 55.6225 276.696 57.6833 277.806 55.9395C278.599 54.5129 291.914 54.6713 294.292 56.2565C295.243 56.7321 296.195 56.5736 296.512 55.9395C296.67 55.1469 299.365 54.0373 302.218 53.5617C305.072 52.9276 307.133 53.0861 306.657 53.8787C305.706 55.3054 318.705 54.9883 321.241 53.403C322.192 52.9275 325.204 52.452 328.216 52.452C335.349 52.6105 357.225 51.0253 377.516 48.9646C380.528 48.489 381.321 46.1111 378.309 45.9526C374.98 45.7941 381.321 43.7333 386.076 43.4163L390.515 43.2578L386.552 45.477ZM224.067 46.1111C223.592 46.9037 222.165 47.6963 221.214 47.6963C220.104 47.6963 220.263 47.0622 221.689 46.1111C224.701 44.2088 225.335 44.2088 224.067 46.1111ZM266.075 47.8548C266.075 48.8059 265.441 48.9645 264.49 48.4889C263.698 48.0134 262.905 46.7452 262.905 45.9526C262.905 45.0015 263.698 44.8429 264.49 45.3185C265.441 45.7941 266.075 47.0622 266.075 47.8548ZM167.316 47.0622C166.841 47.5377 165.414 47.6964 164.305 47.2209C163.036 46.7453 163.512 46.2696 165.256 46.2696C166.999 46.1111 167.951 46.5866 167.316 47.0622ZM203.459 47.6963C203.935 48.6474 203.301 48.806 202.033 48.3304C199.179 47.2208 198.704 46.1111 200.923 46.1111C201.874 46.1111 202.984 46.7452 203.459 47.6963ZM143.538 50.0741C143.538 51.3423 142.904 52.452 142.27 52.452C141.636 52.452 140.843 51.3423 140.209 50.0741C139.734 48.6474 140.209 47.6963 141.477 47.6963C142.587 47.6963 143.538 48.806 143.538 50.0741ZM131.332 51.6593C130.222 52.9275 127.528 53.8787 125.15 53.8787C121.979 53.7202 121.662 53.5617 124.199 52.9276C125.942 52.452 128.003 51.5009 128.954 50.7083C131.332 48.3304 133.393 49.123 131.332 51.6593ZM186.339 51.8178C185.864 52.2934 184.437 52.4521 183.327 51.9765C182.059 51.5009 182.535 51.0252 184.278 51.0252C186.022 50.8667 186.973 51.3423 186.339 51.8178ZM272.416 51.5009C272.416 51.9764 271.782 52.769 270.831 53.2446C270.038 53.7201 269.246 53.403 269.246 52.6104C269.246 51.6593 270.038 50.8667 270.831 50.8667C271.782 50.8667 272.416 51.1838 272.416 51.5009ZM119.76 54.9883C119.284 55.4638 117.858 55.6225 116.748 55.1469C115.48 54.6714 115.955 54.1957 117.699 54.1957C119.443 54.0371 120.394 54.5127 119.76 54.9883ZM143.063 55.7809C143.538 56.2564 142.429 56.5736 140.843 56.7322C139.1 56.8907 137.673 56.415 137.673 55.6224C137.673 54.3542 141.636 54.3542 143.063 55.7809ZM105.969 57.2076C104.7 58.0002 102.957 58.7928 102.006 58.7928C101.213 58.7928 101.53 58.0002 102.798 57.2076C104.066 56.415 105.969 55.6224 106.761 55.6224C107.712 55.6224 107.237 56.415 105.969 57.2076ZM103.274 65.2922C101.847 66.7189 101.372 66.402 101.689 63.8656C101.847 61.6463 102.481 61.0121 103.432 61.9633C104.542 63.0729 104.383 64.1825 103.274 65.2922ZM121.028 61.9633C116.748 63.8655 114.212 63.8655 117.065 61.9633C118.333 61.1706 120.553 60.5365 121.821 60.5365C123.406 60.5365 123.089 61.0121 121.028 61.9633ZM462.801 67.0361C469.142 73.8525 470.885 80.3518 473.105 105.557C473.897 114.909 474.848 122.994 475.324 122.994C475.482 122.994 476.117 128.701 477.543 144.078C478.019 148.675 478.811 153.906 479.445 155.808C480.08 157.869 479.604 159.613 478.336 160.405C477.068 161.198 476.909 161.832 477.702 161.832C478.653 161.832 479.287 165.953 479.128 171.502C479.128 176.733 479.604 181.33 480.238 181.806C480.872 182.123 481.506 185.769 481.506 189.89C481.823 202.572 483.726 223.497 487.213 250.604C488.798 262.176 489.274 294.514 488.006 296.575C487.372 297.685 486.103 298.16 485.152 297.526C484.201 297.051 481.506 297.368 478.97 298.319C476.592 299.27 471.995 300.38 468.983 300.538C465.971 300.855 463.276 301.806 462.959 302.758C462.642 303.709 461.691 304.501 460.898 304.501C459.947 304.501 459.789 303.709 460.423 302.758C461.85 300.38 454.399 302.758 452.814 305.135C451.863 306.404 451.546 306.245 451.546 304.818C451.546 303.867 449.643 302.916 447.424 302.916C445.205 302.916 443.778 303.55 444.412 304.343C444.888 305.135 444.412 306.403 443.461 307.038C442.193 307.83 442.034 307.513 442.827 306.245C443.62 304.818 443.144 304.343 441.083 304.818C439.34 305.135 438.23 306.562 438.547 307.83C438.864 309.415 438.388 309.257 436.803 307.355C435.376 305.611 432.999 304.818 429.987 305.294C421.744 306.245 404.782 308.147 401.611 308.306C399.868 308.464 396.856 309.574 394.953 310.525C392.259 311.952 390.356 312.11 388.296 310.842C386.552 310.05 384.808 309.891 384.333 310.525C383.857 311.318 381.321 311.793 378.626 311.635C376.089 311.476 373.87 311.952 373.87 312.903C373.87 313.696 372.126 313.854 370.066 313.378C367.846 312.903 365.627 313.061 365.151 314.013C364.676 314.964 362.457 315.122 360.237 314.647C358.018 314.013 353.262 314.805 349.616 316.073C345.97 317.5 338.678 318.451 333.447 318.451C323.143 318.451 307.45 319.719 296.195 321.305C292.231 321.939 284.147 322.256 277.965 322.097C271.624 321.939 267.661 322.414 268.929 323.207C270.038 323.999 264.966 324.634 257.04 324.792C234.213 324.951 233.42 325.109 235.956 327.011C237.859 328.121 237.542 328.28 235.164 327.328C233.42 326.694 230.25 326.219 228.03 326.377C224.226 326.694 216.458 326.853 212.971 326.694C207.898 326.536 154.952 329.231 152.733 329.865C151.94 330.023 150.83 330.182 150.355 330.023C146.392 328.597 133.71 328.438 132.125 329.865C130.539 331.133 129.588 330.974 128.32 328.755C127.369 327.17 126.576 326.853 126.576 327.804C126.576 330.023 121.821 330.816 121.821 328.597C121.821 327.963 118.016 327.328 113.261 327.011C108.505 326.694 102.957 326.219 100.896 325.743C98.8352 325.268 93.2869 324.475 88.5313 324.158C83.7756 323.682 78.7029 322.573 77.1177 321.78C75.691 320.988 72.3621 320.353 69.8257 320.353C67.2894 320.353 63.9604 318.927 62.3752 317.183C60.79 315.439 58.7292 314.013 57.6195 314.013C56.6684 314.013 54.2906 312.586 52.3883 310.842C50.3276 308.94 48.9009 308.306 48.9009 309.574C48.9009 310.525 47.9497 310.05 46.6816 308.306C44.9378 306.087 44.9378 304.818 46.206 303.233C46.9986 302.124 47.1571 301.331 46.3645 301.489C42.7185 302.123 42.2429 301.172 45.0963 298.953C46.8401 297.685 47.3157 296.734 46.0475 296.575C44.7793 296.575 44.3037 295.149 44.9378 292.137C45.4134 289.759 45.2549 288.808 44.7793 289.759C44.3037 290.869 43.1941 291.82 42.4015 291.82C40.6577 291.82 41.2918 288.174 43.3526 286.747C44.3037 285.954 44.1452 284.845 42.7185 283.576C40.9748 281.833 40.6577 281.833 41.7674 283.735C42.7185 285.32 42.4015 285.637 40.9748 284.686C39.3896 283.735 39.5481 282.942 41.7674 281.199C44.6208 279.296 44.4623 279.138 40.8163 278.979C38.1214 278.821 37.8044 278.504 39.7066 278.028C43.3526 277.077 43.3526 274.382 39.8651 274.382C37.4873 274.382 37.4873 274.065 39.231 272.955C41.2918 271.687 41.2918 271.053 39.231 268.675C37.9629 267.09 37.8043 266.298 38.7555 266.932C39.8651 267.566 41.1333 266.932 41.6089 265.505C42.0844 264.237 41.9259 263.603 40.9748 264.078C40.0236 264.554 39.3896 264.237 39.3896 263.286C39.3896 262.335 38.7555 262.017 37.8043 262.493C36.8532 262.969 36.6947 262.334 37.1703 261.066C37.6458 259.64 38.597 258.847 39.3896 259.323C40.0236 259.64 40.0236 257.103 39.3896 253.616C38.7555 249.97 37.1703 246.482 36.0606 245.69C34.3169 244.58 34.4754 244.263 36.5362 244.263C38.914 244.263 39.0725 243.629 37.4873 240.142C36.2191 237.288 36.0606 235.703 37.3288 235.069C39.231 233.801 39.0725 227.46 37.0117 225.716C36.3777 224.924 36.2191 225.399 36.8532 226.35C37.6458 227.777 37.1703 228.094 35.268 227.301C32.7317 226.35 32.7317 226.192 35.7436 224.765C38.7555 223.497 38.914 223.021 36.8532 216.205C34.951 210.022 34.951 209.23 37.0117 210.022C39.7066 210.974 40.0236 209.705 37.9629 206.376C37.1703 205.108 35.585 204.633 34.3169 205.108C33.0487 205.584 31.9391 204.95 31.9391 203.84C31.9391 202.73 33.2072 202.255 35.1095 202.73C37.6458 203.365 37.9629 202.73 37.6458 197.341C37.4873 194.012 36.2191 189.098 34.951 186.561C33.3657 183.232 33.3657 182.44 34.7924 183.391C36.2191 184.183 36.3777 183.708 35.7436 181.806C34.951 179.586 35.268 179.111 37.0117 179.903C38.4384 180.379 39.3896 179.903 39.3896 178.477C39.3896 177.208 38.4384 176.099 37.4873 176.099C36.0606 176.099 36.2191 175.465 37.8043 174.514C40.0236 173.087 38.914 172.294 35.7436 172.77C35.1095 172.928 35.268 171.66 36.0606 170.075C37.0117 168.331 37.3288 165.161 36.8532 162.783C36.3777 159.93 36.6947 158.82 37.8043 159.454C38.597 159.93 39.3896 159.771 39.3896 158.979C39.3896 158.027 38.1214 156.918 36.6947 156.442C34.7924 155.649 34.6339 154.857 35.9021 153.589C37.1703 152.321 37.0117 151.211 35.268 149.626C33.9998 148.358 33.2072 146.138 33.2072 144.712C33.3657 142.175 33.5243 142.175 34.1584 144.712C34.951 147.565 39.3896 149.943 39.3896 147.565C39.3896 146.614 38.7555 145.98 37.9629 145.98C35.9021 145.98 34.951 131.713 37.0117 131.554C37.8043 131.554 37.1703 130.92 35.4265 130.128C33.6828 129.335 33.2072 128.701 34.3169 128.701C35.268 128.542 36.2191 127.433 36.2191 126.006C36.2191 124.579 35.4265 124.104 34.3169 124.738C33.2072 125.53 33.0487 125.213 33.8413 123.787C34.7924 122.201 35.7436 122.519 38.1214 125.213C39.7066 127.274 40.9748 128.384 40.9748 127.75C40.9748 127.116 42.877 129.018 45.4134 131.871C50.8031 138.688 54.1321 142.492 63.1678 152.004C67.1308 156.125 72.045 161.99 74.2643 165.002C76.4836 168.014 79.337 171.66 80.6052 173.087C81.8733 174.355 86.1534 179.269 89.958 183.708C93.921 188.305 97.884 191.951 99.1522 191.951C100.262 191.951 100.737 192.902 100.262 194.329C99.6278 195.755 100.262 196.707 101.689 196.707C102.957 196.707 104.383 197.816 105.018 199.084C105.493 200.353 107.078 201.462 108.346 201.462C109.773 201.462 110.566 202.096 109.932 203.047C108.664 205.267 131.332 229.996 134.82 229.996C135.454 229.996 136.088 230.947 136.088 232.215C136.088 233.325 139.417 237.13 143.697 240.459C147.818 243.787 151.623 247.275 152.257 248.226C152.891 249.019 153.525 249.177 153.525 248.543C153.525 247.909 156.22 250.128 159.39 253.774C164.78 259.481 169.377 262.493 166.999 258.53C166.524 257.579 167.158 257.42 168.585 258.055C170.487 258.689 170.645 259.323 169.219 260.115C167.951 260.908 169.536 262.969 174.133 266.298C180.474 270.895 181.742 271.529 184.595 271.053C185.229 271.053 186.181 271.846 186.973 273.114C187.924 274.699 188.717 274.541 190.619 272.004C192.363 269.627 193.314 269.31 195.058 270.895C196.326 271.846 197.911 272.321 198.545 271.687C199.179 271.053 199.179 271.687 198.545 273.273C197.277 276.602 197.119 276.601 194.107 273.431C192.68 272.163 191.57 271.529 191.57 272.321C191.57 274.224 194.107 277.87 195.375 277.711C198.862 277.236 201.082 277.711 200.448 278.821C200.13 279.455 201.399 280.089 203.301 280.089C205.203 280.089 206.947 279.138 206.947 278.028C206.947 277.077 206.313 276.443 205.52 276.918C204.886 277.394 204.252 276.918 204.252 276.126C204.252 275.175 205.362 274.382 206.63 274.382C208.057 274.382 209.008 275.809 209.008 277.711C209.008 280.247 209.642 280.723 211.861 279.93C213.288 279.296 217.092 278.187 220.104 277.394C222.958 276.76 226.762 274.541 228.347 272.48C229.933 270.419 231.201 269.468 231.201 270.261C231.201 270.895 232.627 269.944 234.53 267.883C236.273 265.822 237.225 265.029 236.59 266.298C235.798 267.724 236.115 268.2 237.225 267.407C238.334 266.773 239.127 265.346 239.127 264.237C239.127 263.127 240.87 261.225 243.09 260.115C245.309 259.006 246.736 257.737 246.419 257.42C246.102 257.103 249.114 253.616 252.918 249.811C256.723 245.848 259.418 242.678 258.942 242.678C258.308 242.678 261.32 240.142 265.6 236.813C269.721 233.642 273.843 229.996 274.636 228.728C277.489 223.814 361.347 141.858 382.747 122.994C388.613 117.763 394.795 112.215 396.38 110.629C397.965 109.203 399.551 107.935 400.026 107.935C400.502 107.935 403.197 105.715 406.05 103.02C408.903 100.326 412.549 96.838 414.293 95.0943C416.195 93.5091 418.415 92.0824 419.524 92.0824C420.634 92.0824 421.427 91.4482 421.427 90.6556C421.427 89.863 422.853 88.5949 424.597 88.1193C426.341 87.6437 427.767 85.9001 427.767 84.6319C427.767 83.2052 428.243 82.5711 428.877 83.0467C429.987 84.1564 437.913 78.608 444.254 72.2672C446.314 70.2064 447.741 68.1456 447.266 67.67C446.79 67.3529 447.741 67.1945 449.326 67.353C450.912 67.6701 453.289 66.8775 454.399 65.6093C457.411 62.7559 458.838 62.9145 462.801 67.0361ZM514.003 76.5474C513.528 77.1814 512.259 77.8154 511.308 77.6569C509.882 77.6569 509.882 77.3399 511.308 76.8643C512.418 76.3888 512.735 74.8036 512.259 73.3769C511.625 71.1576 511.784 71.1575 513.052 73.0598C514.003 74.3279 514.32 75.9133 514.003 76.5474ZM516.54 95.2528C516.54 96.0454 515.905 96.838 514.954 96.838C514.162 96.838 513.369 96.0454 513.369 95.2528C513.369 94.3017 514.162 93.6676 514.954 93.6676C515.905 93.6676 516.54 94.3017 516.54 95.2528ZM23.5374 128.542C23.5374 129.335 23.2204 130.128 22.9033 130.128C22.4278 130.128 21.6351 129.335 21.1596 128.542C20.684 127.591 21.0011 126.957 21.7937 126.957C22.7448 126.957 23.5374 127.591 23.5374 128.542ZM59.9974 133.298C59.9974 134.091 59.2048 134.883 58.2536 134.883C57.461 134.883 57.144 134.091 57.6195 133.298C58.0951 132.347 58.8877 131.713 59.3633 131.713C59.6803 131.713 59.9974 132.347 59.9974 133.298ZM23.5374 226.826C23.5374 227.618 22.4278 227.777 20.8425 227.301C19.0988 226.667 18.6232 226.826 19.4158 228.094C20.2085 229.362 19.7329 229.679 18.1477 229.045C16.721 228.569 16.0869 227.46 16.5625 226.667C17.6721 224.765 23.5374 224.923 23.5374 226.826ZM170.487 242.044C170.011 242.519 168.585 242.678 167.475 242.202C166.207 241.727 166.682 241.251 168.426 241.251C170.17 241.093 171.121 241.568 170.487 242.044ZM168.426 246.007C167.158 248.068 165.097 247.75 164.146 245.214C163.512 243.629 164.146 243.312 166.365 243.788C167.951 244.263 168.902 245.214 168.426 246.007ZM184.278 253.933C183.486 255.36 177.303 254.408 175.877 252.823C175.401 252.189 176.194 252.189 177.779 252.665C179.523 253.299 180.949 252.823 181.583 251.238C182.218 249.336 182.852 249.177 183.803 250.762C184.437 251.872 184.754 253.299 184.278 253.933ZM235.005 259.957C237.7 260.908 237.542 261.383 233.42 264.078C229.298 266.615 229.14 266.773 231.042 264.237C233.103 261.859 233.103 261.225 231.042 259.957C228.347 258.372 230.725 258.213 235.005 259.957ZM192.204 262.652C192.838 264.078 192.838 265.664 192.363 266.139C191.887 266.615 191.57 266.139 191.57 265.029C191.57 263.761 190.461 263.286 189.192 263.92C186.815 264.712 186.022 263.127 187.924 261.225C189.668 259.481 191.253 259.957 192.204 262.652ZM215.349 262.335C215.349 262.81 214.714 263.603 213.763 264.078C212.971 264.554 212.178 264.237 212.178 263.444C212.178 262.493 212.971 261.7 213.763 261.7C214.714 261.7 215.349 262.018 215.349 262.335ZM205.679 269.785C204.411 270.419 203.142 270.419 202.508 269.468C202.033 268.517 201.082 267.883 200.448 268.041C199.813 268.2 198.545 267.883 197.436 267.566C195.692 266.773 200.13 265.822 203.142 266.298C203.776 266.298 204.252 265.505 204.252 264.395C204.252 263.444 205.045 263.761 205.996 265.505C207.422 267.724 207.264 268.675 205.679 269.785ZM224.86 268.992C224.86 270.895 224.226 270.895 221.689 269.627C219.946 268.675 218.836 267.249 219.312 266.456C220.58 264.395 224.86 266.456 224.86 268.992ZM186.815 268.041C186.815 268.834 186.498 269.627 186.181 269.627C185.705 269.627 184.912 268.834 184.437 268.041C183.961 267.09 184.278 266.456 185.071 266.456C186.022 266.456 186.815 267.09 186.815 268.041ZM211.544 269.627C211.544 271.529 210.91 272.163 210.117 271.37C209.325 270.578 209.166 269.151 209.642 268.2C211.227 265.822 211.544 265.981 211.544 269.627ZM221.689 272.797C221.689 273.59 220.897 274.382 219.946 274.382C219.153 274.382 218.836 273.59 219.312 272.797C219.787 271.846 220.58 271.212 221.055 271.212C221.372 271.212 221.689 271.846 221.689 272.797ZM216.934 275.016C216.934 275.333 215.507 275.967 213.763 276.443C212.02 276.919 210.91 276.601 211.544 275.809C212.337 274.382 216.934 273.748 216.934 275.016ZM520.82 296.892C520.344 298.161 519.868 297.685 519.868 295.941C519.71 294.197 520.186 293.246 520.661 293.88C521.137 294.356 521.295 295.783 520.82 296.892ZM475.324 331.45C475.324 332.56 474.056 332.877 471.836 332.084C466.922 330.657 466.764 330.34 469.142 327.804C470.885 326.06 471.678 325.902 473.263 327.645C474.373 328.755 475.324 330.499 475.324 331.45ZM405.574 327.328C405.574 327.804 404.94 328.597 403.989 329.072C403.197 329.548 402.404 329.231 402.404 328.438C402.404 327.487 403.197 326.694 403.989 326.694C404.94 326.694 405.574 327.011 405.574 327.328ZM480.08 333.828C481.823 335.889 481.665 336.047 479.445 335.254C478.019 334.779 476.909 333.669 476.909 332.877C476.909 330.816 477.86 331.133 480.08 333.828ZM50.9616 344.132C50.4861 346.034 49.6935 347.144 49.2179 346.668C48.4253 345.717 50.0105 340.961 51.1202 340.961C51.4372 340.961 51.4372 342.388 50.9616 344.132ZM98.5181 346.351C100.262 350.79 99.3107 350.79 95.9818 346.351C94.0795 343.656 93.7625 342.547 95.1892 342.864C96.2988 343.181 97.7255 344.766 98.5181 346.351ZM301.901 348.095C302.06 349.521 301.267 349.839 299.682 349.204C298.097 348.57 297.78 348.095 299.048 347.619C300.158 347.302 300.475 346.193 299.841 345.241C299.365 344.132 299.523 343.973 300.158 344.607C300.95 345.241 301.743 346.827 301.901 348.095ZM333.447 345.717C330.435 346.985 330.435 347.144 333.923 347.144C335.825 347.302 337.41 348.095 337.41 349.046C337.41 350.155 335.825 350.472 333.447 350.155C331.386 349.68 329.326 350.156 328.85 351.107C328.533 352.058 328.057 351.265 328.057 349.363C327.899 346.034 329.801 344.449 334.24 344.29C335.666 344.29 335.508 344.924 333.447 345.717ZM241.98 353.484C245.309 354.436 248.797 354.436 251.016 353.643C254.186 352.375 255.296 352.692 256.564 355.228C257.515 356.972 257.991 358.399 257.832 358.557C257.515 358.557 255.613 358.874 253.394 359.35C249.589 359.984 249.589 359.825 252.443 357.606C254.186 356.338 254.82 355.228 253.869 355.228C252.76 355.228 251.016 356.338 249.589 357.606C248.321 358.874 246.26 359.984 245.151 360.142C244.041 360.142 244.517 360.776 246.102 361.411C247.845 362.045 248.48 362.996 247.687 363.63C246.736 364.105 245.151 363.788 243.882 362.996C241.822 361.728 241.98 361.252 244.358 359.35C247.687 356.813 246.419 355.545 240.712 356.021C238.493 356.179 235.798 355.387 234.688 354.118C232.152 351.582 234.371 351.424 241.98 353.484ZM58.4122 355.228C58.4122 356.021 58.0951 356.814 57.7781 356.814C57.3025 356.814 56.5099 356.021 56.0343 355.228C55.5588 354.277 55.8758 353.643 56.6684 353.643C57.6195 353.643 58.4122 354.277 58.4122 355.228ZM129.747 355.545C129.747 357.289 127.845 357.131 124.991 355.228C123.089 354.119 123.406 353.801 126.259 354.118C128.162 354.118 129.747 354.911 129.747 355.545ZM186.181 359.667C185.864 360.301 183.169 361.093 180.474 361.252C177.462 361.569 175.877 361.094 176.511 359.984C178.096 357.448 175.56 358.082 171.914 361.094C169.377 363.313 169.06 363.313 170.17 361.569C171.121 360.09 170.857 360.09 169.377 361.569C166.365 364.581 157.647 365.056 160.183 362.044C161.134 360.776 161.451 359.508 160.817 358.874C160.342 358.398 159.866 358.716 159.866 359.667C159.866 360.776 158.756 361.569 157.488 361.569C156.22 361.569 155.11 362.362 155.11 363.313C155.11 364.581 154.476 364.581 152.891 363.313C151.464 362.045 150.513 362.045 150.038 362.996C149.721 364.105 147.66 364.105 143.697 362.837C137.197 360.935 132.125 362.045 133.868 365.057C134.503 366.166 133.551 365.849 131.808 364.264C129.113 361.886 127.686 361.728 125.15 362.996C120.87 365.374 120.236 365.215 120.236 361.728C120.236 357.764 123.723 357.13 133.393 359.033C139.892 360.301 141.319 359.984 143.38 357.448C144.806 355.862 145.441 355.387 144.806 356.338C144.331 357.448 144.648 358.399 145.441 358.399C146.392 358.399 147.184 357.448 147.184 356.338C147.184 355.07 147.501 354.911 148.452 356.179C149.245 357.447 152.098 357.606 157.013 356.814C161.134 356.338 165.097 356.338 165.89 357.131C166.682 357.923 169.06 357.765 171.438 356.655C174.767 355.228 176.194 355.228 177.937 356.655C179.681 358.082 180.632 358.082 182.376 356.338C184.12 354.277 184.595 354.277 185.705 356.179C186.339 357.447 186.656 359.033 186.181 359.667ZM189.985 355.228C189.985 356.021 189.668 356.814 189.351 356.814C188.875 356.814 188.083 356.021 187.607 355.228C187.132 354.277 187.449 353.643 188.241 353.643C189.192 353.643 189.985 354.277 189.985 355.228ZM193.948 355.228C193.473 356.021 193.79 356.972 194.582 356.972C195.533 357.13 197.119 357.289 198.228 357.448C199.179 357.448 200.13 358.874 200.448 360.459C200.765 363.154 200.606 363.154 198.07 360.935C196.167 359.191 194.899 358.874 193.631 360.142C192.363 361.41 191.57 361.252 190.778 359.825C189.827 358.557 190.144 358.24 191.57 359.191C193.156 360.143 193.473 359.825 192.68 358.081C192.204 356.655 192.204 355.07 192.68 354.594C194.265 353.009 195.058 353.485 193.948 355.228ZM234.371 357.448C234.371 358.874 232.944 359.667 231.201 359.508C229.457 359.35 228.03 358.716 228.03 357.923C228.03 357.131 229.14 356.813 230.408 357.448C231.676 357.923 232.786 357.606 232.786 356.814C232.786 355.862 233.103 355.228 233.579 355.228C234.054 355.228 234.371 356.179 234.371 357.448ZM111.517 358.399C111.992 359.191 111.675 359.984 110.883 359.984C109.932 359.984 109.139 359.191 109.139 358.399C109.139 357.448 109.456 356.814 109.773 356.814C110.249 356.814 111.041 357.448 111.517 358.399ZM66.3382 359.825C66.3382 360.618 65.2286 361.569 64.1189 362.044C62.5337 362.679 62.0582 362.203 62.6922 360.618C63.6434 358.24 66.3382 357.606 66.3382 359.825ZM198.704 364.74C199.338 365.691 197.594 366.325 194.741 366.325C191.887 366.325 190.144 365.691 190.778 364.74C191.253 363.789 193.156 363.154 194.741 363.154C196.326 363.154 198.228 363.789 198.704 364.74ZM94.3966 365.691C93.921 366.166 92.4943 366.325 91.3846 365.849C90.1165 365.374 90.592 364.898 92.3358 364.898C94.0795 364.739 95.0306 365.215 94.3966 365.691Z" fill="#171717"/>
<path fill-rule="evenodd" clip-rule="evenodd" d="M161.451 67.9395C161.451 68.8906 161.927 69.2077 162.402 68.7321C163.036 68.2565 164.78 68.4149 166.365 69.366C168.743 70.4757 169.377 70.3172 169.377 68.4149C169.377 66.9882 167.951 66.0371 165.414 66.0371C163.195 66.0371 161.451 66.8298 161.451 67.9395Z" fill="#171717"/>
<path fill-rule="evenodd" clip-rule="evenodd" d="M37.8042 197.768C37.8042 199.512 38.4383 200.622 39.3894 199.988C40.182 199.512 40.4991 198.085 39.865 196.817C38.7553 193.488 37.8042 193.805 37.8042 197.768Z" fill="#171717"/>
<path fill-rule="evenodd" clip-rule="evenodd" d="M521.453 149.419C521.453 151.163 521.929 151.639 522.404 150.371C522.88 149.261 522.721 147.834 522.246 147.359C521.77 146.725 521.294 147.676 521.453 149.419Z" fill="#171717"/>
<path fill-rule="evenodd" clip-rule="evenodd" d="M528.429 272.115C527.953 272.908 528.27 273.7 529.063 273.7C530.014 273.7 530.807 272.908 530.807 272.115C530.807 271.164 530.49 270.53 530.173 270.53C529.697 270.53 528.905 271.164 528.429 272.115Z" fill="#171717"/>
<path fill-rule="evenodd" clip-rule="evenodd" d="M517.49 318.879C517.014 320.306 517.49 321.257 518.917 321.257C520.185 321.257 521.294 320.147 521.294 318.879C521.294 317.611 520.66 316.501 519.868 316.501C519.075 316.501 518.124 317.611 517.49 318.879Z" fill="#171717"/>
<path fill-rule="evenodd" clip-rule="evenodd" d="M495.298 339.487C494.822 340.755 495.139 341.865 495.932 341.865C497.993 341.865 499.419 339.011 497.675 338.06C496.883 337.584 495.932 338.219 495.298 339.487Z" fill="#171717"/>
<path fill-rule="evenodd" clip-rule="evenodd" d="M437.278 344.876C437.278 345.828 437.912 346.937 438.864 347.413C439.815 347.888 439.973 347.254 439.498 345.986C438.388 343.133 437.278 342.657 437.278 344.876Z" fill="#171717"/>
<path fill-rule="evenodd" clip-rule="evenodd" d="M492.92 347.096C490.859 350.425 491.017 350.425 493.712 347.889C495.297 346.303 496.249 344.718 495.773 344.401C495.297 343.925 494.029 345.194 492.92 347.096Z" fill="#171717"/>
<path fill-rule="evenodd" clip-rule="evenodd" d="M410.964 350.425C410.489 351.852 409.379 352.644 408.745 352.169C407.953 351.693 406.843 352.01 406.367 352.961C405.575 354.229 404.624 354.071 403.038 352.803C401.77 351.852 400.343 351.376 399.709 352.01C399.234 352.486 399.551 352.961 400.819 352.961C402.404 352.961 402.404 353.437 400.819 355.339C399.392 357.083 399.234 358.351 400.343 359.461C401.612 360.729 402.404 360.57 403.038 359.461C403.672 358.509 403.197 357.717 402.087 357.558C400.978 357.4 401.77 356.924 403.99 356.29C406.209 355.498 409.221 355.656 410.964 356.607C413.025 357.558 413.501 357.558 412.867 356.29C412.233 355.339 412.55 354.546 413.342 354.546C415.562 354.546 415.562 350.266 413.501 348.998C412.55 348.523 411.44 349.157 410.964 350.425Z" fill="#171717"/>
<path fill-rule="evenodd" clip-rule="evenodd" d="M418.891 349.632C417.464 351.217 418.415 352.961 420.793 352.961C422.378 352.961 423.012 353.912 422.378 355.339C421.902 356.766 422.378 357.717 423.646 357.717C424.914 357.717 426.183 356.29 426.658 354.705C427.134 352.485 428.402 351.852 430.78 352.486C432.999 352.961 434.109 352.644 434.109 351.059C434.109 349.474 432.048 348.998 426.817 348.998C422.854 348.998 419.366 349.315 418.891 349.632Z" fill="#171717"/>
<path fill-rule="evenodd" clip-rule="evenodd" d="M435.693 351.534C435.693 352.327 436.486 352.644 437.279 352.169C438.23 351.693 438.864 350.9 438.864 350.425C438.864 350.108 438.23 349.791 437.279 349.791C436.486 349.791 435.693 350.583 435.693 351.534Z" fill="#171717"/>
<path fill-rule="evenodd" clip-rule="evenodd" d="M441.4 352.327C440.766 353.754 440.766 355.339 441.241 355.815C441.558 356.29 442.351 355.339 442.985 353.912C443.619 352.486 443.619 350.901 443.144 350.425C442.827 349.949 442.034 350.9 441.4 352.327Z" fill="#171717"/>
<path fill-rule="evenodd" clip-rule="evenodd" d="M451.546 351.376C449.644 352.644 449.961 352.961 452.814 352.961C454.875 352.961 455.985 352.327 455.509 351.376C454.4 349.474 454.558 349.474 451.546 351.376Z" fill="#171717"/>
<path fill-rule="evenodd" clip-rule="evenodd" d="M374.029 358.034C372.549 360.465 372.972 360.676 375.297 358.668C378.784 355.497 379.26 354.546 377.358 354.546C376.723 354.546 375.297 356.132 374.029 358.034Z" fill="#171717"/>
<path fill-rule="evenodd" clip-rule="evenodd" d="M432.523 355.181C432.523 356.607 437.279 357.4 438.071 356.132C438.705 355.18 437.596 354.546 435.852 354.546C433.95 354.546 432.523 354.863 432.523 355.181Z" fill="#171717"/>
<path fill-rule="evenodd" clip-rule="evenodd" d="M344.068 358.034C341.849 360.253 341.532 363.107 343.751 361.68C344.702 361.204 345.336 361.521 345.336 362.631C345.336 364.216 345.812 364.216 347.08 362.948C348.19 361.838 348.348 360.253 347.397 358.668C346.288 356.607 345.495 356.607 344.068 358.034Z" fill="#171717"/>
<path fill-rule="evenodd" clip-rule="evenodd" d="M388.929 357.717C388.454 358.668 389.088 358.826 390.356 358.351C393.209 357.241 393.685 356.132 391.466 356.132C390.515 356.132 389.405 356.766 388.929 357.717Z" fill="#171717"/>
<path fill-rule="evenodd" clip-rule="evenodd" d="M415.879 357.717C415.403 358.509 415.72 359.302 416.513 359.302C417.464 359.302 418.257 358.509 418.257 357.717C418.257 356.766 417.939 356.132 417.622 356.132C417.147 356.132 416.354 356.766 415.879 357.717Z" fill="#171717"/>
<path fill-rule="evenodd" clip-rule="evenodd" d="M350.885 359.302C349.775 361.046 351.677 365.643 353.58 365.643C354.372 365.643 354.689 365.009 354.214 364.216C352.629 361.68 357.543 361.046 361.664 363.265C363.884 364.375 366.103 365.009 366.578 364.533C367.688 363.265 361.347 359.936 355.957 358.985C353.58 358.509 351.202 358.668 350.885 359.302Z" fill="#171717"/>
<path d="M377.04 364.058C377.916 364.058 378.626 363.348 378.626 362.473C378.626 361.597 377.916 360.887 377.04 360.887C376.165 360.887 375.455 361.597 375.455 362.473C375.455 363.348 376.165 364.058 377.04 364.058Z" fill="#171717"/>
<path fill-rule="evenodd" clip-rule="evenodd" d="M381.004 362.473C380.528 363.265 380.845 364.058 381.638 364.058C382.589 364.058 383.382 363.265 383.382 362.473C383.382 361.521 383.064 360.887 382.747 360.887C382.272 360.887 381.479 361.521 381.004 362.473Z" fill="#171717"/>
<path fill-rule="evenodd" clip-rule="evenodd" d="M357.383 365.96C357.859 366.753 358.968 366.911 359.761 366.436C361.822 365.009 361.505 364.533 358.81 364.533C357.542 364.533 356.907 365.168 357.383 365.96Z" fill="#171717"/>
<path fill-rule="evenodd" clip-rule="evenodd" d="M328.692 368.813C328.216 369.606 328.533 370.399 329.326 370.399C330.277 370.399 331.07 369.606 331.07 368.813C331.07 367.862 330.752 367.228 330.435 367.228C329.96 367.228 329.167 367.862 328.692 368.813Z" fill="#171717"/>
<path fill-rule="evenodd" clip-rule="evenodd" d="M317.596 370.399C317.12 371.191 317.437 371.984 318.23 371.984C319.181 371.984 319.973 371.191 319.973 370.399C319.973 369.448 319.656 368.813 319.339 368.813C318.864 368.813 318.071 369.448 317.596 370.399Z" fill="#171717"/>
<path fill-rule="evenodd" clip-rule="evenodd" d="M289.536 373.094C290.645 373.569 292.072 373.411 292.548 372.935C293.182 372.459 292.231 371.984 290.487 372.142C288.743 372.142 288.268 372.618 289.536 373.094Z" fill="#171717"/>
</svg>
