<svg width="267" height="182" viewBox="0 0 267 182" fill="none" xmlns="http://www.w3.org/2000/svg">
  <path 
    id="curved-arrow"
    d="M258.593 13.2957C257.525 12.6018 256.708 11.6772 255.696 10.9289C253.222 9.1002 249.118 9.14901 246.214 8.97476C223.309 7.59994 202.839 20.352 184.741 32.9272C168.634 44.1183 144.515 61.1908 146.277 83.7486C147.128 94.6498 155.992 99.5469 165.877 100.122C170.421 100.386 175.624 99.6119 179.447 96.9254C184.043 93.6961 185.34 85.0044 185.221 79.8826C185.043 72.1713 180.149 66.861 173.087 64.2751C167.294 62.1539 160.377 62.2353 154.304 61.8589C146.495 61.3748 138.586 61.5043 130.805 62.372C106.74 65.0556 85.4897 83.6701 69.6144 100.518C58.7634 112.035 48.1564 124.297 38.9169 137.158C33.923 144.109 28.6661 151.576 25.612 159.644C25.4361 160.109 22.5396 167.374 24.286 166.192C28.46 163.366 32.876 161.088 37.2901 158.653C49.006 152.188 60.5446 145.416 72.3477 139.107C79.7828 135.132 87.4273 131.539 94.8203 127.49C98.263 125.605 95.4235 127.165 94.1757 128.135C85.2688 135.052 75.1349 140.187 65.223 145.479C51.1021 153.019 36.9267 160.435 22.5627 167.502C22.2621 167.65 13.0349 172.176 11.8831 172.69C10.196 173.441 7.99542 174.786 8.42667 172.107C9.69522 164.227 11.2609 156.456 12.257 148.513C14.3348 131.945 14.3807 115.69 14.5329 99.059" 
    stroke="black"
    stroke-width="16.0024"
    stroke-linecap="round"
    stroke-dasharray="1000"
    stroke-dashoffset="1000">
    <animate
      attributeName="stroke-dashoffset"
      from="1000"
      to="0"
      dur="2s"
      fill="freeze"
    />
  </path>
</svg>